<?xml version="1.0" encoding="UTF-8"?>
<svg id="Camada_2" data-name="Camada 2" xmlns="http://www.w3.org/2000/svg" viewBox="0 0 512 384">
  <defs>
    <style>
      .cls-1 {
        fill: #333;
        opacity: .7;
      }
    </style>
  </defs>
  <g id="Camada_1-2" data-name="Camada 1">
    <path class="cls-1" d="M48,0C21.5,0,0,21.5,0,48c0,15.1,7.1,29.3,19.2,38.4L236.8,249.6c11.4,8.5,27,8.5,38.4,0L492.8,86.4c12.1-9.1,19.2-23.3,19.2-38.4,0-26.5-21.5-48-48-48,0,0-416,0-416,0ZM0,112v208c0,35.3,28.7,64,64,64H448c35.3,0,64-28.7,64-64V112l-217.6,163.2c-22.8,17.1-54,17.1-76.8,0L0,112Z"/>
  </g>
</svg>