<?xml version="1.0" encoding="UTF-8"?>
<svg id="Camada_2" data-name="Camada 2" xmlns="http://www.w3.org/2000/svg" viewBox="0 0 229.75 240.78">
  <defs>
    <style>
      .cls-1 {
        fill: #e8e9f7;
      }
    </style>
  </defs>
  <g id="Camada_1-2" data-name="Camada 1">
    <g>
      <path class="cls-1" d="M225.78,227.34l-14.55,13.32-17.93-19.62h19.97c3.57,0,6.86,1.13,9.55,3.06l2.96,3.24Z"/>
      <path class="cls-1" d="M225.78,227.34l-14.55,13.32-17.93-19.62h19.97c3.57,0,6.86,1.13,9.55,3.06l2.96,3.24Z"/>
      <path class="cls-1" d="M213.26,221.05h-19.97L5.41,15.45h0C2.08,12.43,0,8.07,0,3.24,0,2.35,.36,1.54,.95,.95c.59-.58,1.4-.95,2.29-.95H226.51c1.78,0,3.23,1.45,3.23,3.24,0,4.56-1.84,8.68-4.83,11.66-.79,.79-1.65,1.5-2.58,2.11l-79.73,87.25-14.54-13.32L193.13,19.74H36.06L222.82,224.11c-2.69-1.92-5.99-3.06-9.55-3.06Z"/>
      <path class="cls-1" d="M229.75,237.55c0,.89-.36,1.7-.95,2.29-.59,.58-1.4,.95-2.29,.95H3.23c-1.78,0-3.23-1.45-3.23-3.24,0-4.56,1.84-8.68,4.83-11.66,.44-.44,.91-.86,1.39-1.23l-.04-.04,82.96-90.79,14.55,13.32L36.17,221.05H193.29l17.93,19.62,14.55-13.32-2.96-3.24c4.2,2.99,6.93,7.89,6.93,13.44Z"/>
    </g>
  </g>
</svg>