<?xml version="1.0" encoding="UTF-8"?>
<svg id="Camada_2" data-name="Camada 2" xmlns="http://www.w3.org/2000/svg" viewBox="0 0 271.74 86.26">
  <defs>
    <style>
      .cls-1 {
        font-family: CoolveticaRg-Regular, Coolvetica;
        font-size: 81px;
        letter-spacing: .06em;
      }

      .cls-1, .cls-2 {
        fill: #263238;
      }
    </style>
  </defs>
  <g id="Camada_1-2" data-name="Camada 1">
    <g>
      <text class="cls-1" transform="translate(0 67.39)"><tspan x="0" y="0">Geldli</tspan></text>
      <g>
        <path class="cls-2" d="M270.81,66.02l-3.41,3.12-4.2-4.6h4.68c.84,0,1.61,.27,2.24,.72l.69,.76Z"/>
        <path class="cls-2" d="M270.81,66.02l-3.41,3.12-4.2-4.6h4.68c.84,0,1.61,.27,2.24,.72l.69,.76Z"/>
        <path class="cls-2" d="M267.88,64.54h-4.68l-44.03-48.22h0c-.78-.71-1.27-1.73-1.27-2.87,0-.21,.09-.4,.22-.54,.14-.14,.33-.22,.54-.22h52.32c.42,0,.76,.34,.76,.76,0,1.07-.43,2.04-1.13,2.74-.18,.19-.39,.35-.61,.5l-18.68,20.47-3.41-3.12,15.25-16.7h-36.81l43.76,47.93c-.63-.45-1.4-.72-2.24-.72Z"/>
        <path class="cls-2" d="M271.74,68.41c0,.21-.09,.4-.22,.54-.14,.14-.33,.22-.54,.22h-52.32c-.42,0-.76-.34-.76-.76,0-1.07,.43-2.04,1.13-2.74,.1-.1,.21-.2,.33-.29h0s19.44-21.3,19.44-21.3l3.41,3.12-15.82,17.33h36.82l4.2,4.6,3.41-3.12-.69-.76c.98,.7,1.62,1.85,1.62,3.15Z"/>
      </g>
    </g>
  </g>
</svg>