<?xml version="1.0" encoding="UTF-8"?>
<svg id="Camada_2" data-name="Camada 2" xmlns="http://www.w3.org/2000/svg" viewBox="0 0 398.93 418.46">
  <defs>
    <style>
      .cls-1 {
        fill: #263238;
      }
    </style>
  </defs>
  <g id="Camada_1-2" data-name="Camada 1">
    <g>
      <path class="cls-1" d="M392.03,395.1l-25.27,23.15-31.13-34.09h34.67c6.2,0,11.92,1.97,16.59,5.32l5.14,5.63Z"/>
      <path class="cls-1" d="M392.03,395.1l-25.27,23.15-31.13-34.09h34.67c6.2,0,11.92,1.97,16.59,5.32l5.14,5.63Z"/>
      <path class="cls-1" d="M370.3,384.16h-34.67L9.4,26.86l-.02-.02C3.61,21.61,0,14.03,0,5.63c0-1.54,.63-2.95,1.64-3.98C2.67,.63,4.07,0,5.62,0H393.31c3.1,0,5.62,2.52,5.62,5.63,0,7.92-3.2,15.09-8.39,20.27-1.37,1.37-2.86,2.61-4.49,3.67L247.61,181.21l-25.25-23.15,112.98-123.76H62.61L386.89,389.48c-4.67-3.34-10.39-5.32-16.59-5.32Z"/>
      <path class="cls-1" d="M398.93,412.84c0,1.54-.63,2.95-1.64,3.98-1.03,1.01-2.43,1.65-3.97,1.65H5.62c-3.1,0-5.62-2.52-5.62-5.63,0-7.92,3.2-15.09,8.39-20.27,.77-.77,1.58-1.49,2.41-2.14l-.07-.07L154.78,232.57l25.27,23.15L62.8,384.16H335.63l31.13,34.09,25.27-23.15-5.14-5.63c7.29,5.2,12.04,13.72,12.04,23.36Z"/>
    </g>
  </g>
</svg>