<?xml version="1.0" encoding="UTF-8"?>
<svg id="Camada_2" data-name="Camada 2" xmlns="http://www.w3.org/2000/svg" viewBox="0 0 448 448">
  <defs>
    <style>
      .cls-1 {
        fill: #4246a4;
      }
    </style>
  </defs>
  <g id="Camada_1-2" data-name="Camada 1">
    <path class="cls-1" d="M160,48c0-26.5,21.5-48,48-48h32c26.5,0,48,21.5,48,48V400c0,26.5-21.5,48-48,48h-32c-26.5,0-48-21.5-48-48V48ZM0,240c0-26.5,21.5-48,48-48h32c26.5,0,48,21.5,48,48v160c0,26.5-21.5,48-48,48H48c-26.5,0-48-21.5-48-48V240ZM368,64h32c26.5,0,48,21.5,48,48V400c0,26.5-21.5,48-48,48h-32c-26.5,0-48-21.5-48-48V112c0-26.5,21.5-48,48-48Z"/>
  </g>
</svg>