<?xml version="1.0" encoding="UTF-8"?>
<svg id="Camada_2" data-name="Camada 2" xmlns="http://www.w3.org/2000/svg" viewBox="0 0 199.67 209.26">
  <defs>
    <style>
      .cls-1 {
        fill: #4246a4;
      }
    </style>
  </defs>
  <g id="Camada_1-2" data-name="Camada 1">
    <g>
      <path class="cls-1" d="M196.21,197.58l-12.65,11.58-15.58-17.05h17.35c3.1,0,5.96,.99,8.3,2.66l2.57,2.81Z"/>
      <path class="cls-1" d="M196.21,197.58l-12.65,11.58-15.58-17.05h17.35c3.1,0,5.96,.99,8.3,2.66l2.57,2.81Z"/>
      <path class="cls-1" d="M185.34,192.1h-17.35L4.7,13.43h0C1.81,10.81,0,7.02,0,2.81c0-.77,.32-1.48,.82-1.99,.51-.51,1.22-.82,1.99-.82H196.86c1.55,0,2.81,1.26,2.81,2.81,0,3.96-1.6,7.55-4.2,10.14-.69,.69-1.43,1.3-2.25,1.84L123.93,90.62l-12.64-11.58,56.55-61.89H31.34L193.64,194.76c-2.34-1.67-5.2-2.66-8.3-2.66Z"/>
      <path class="cls-1" d="M199.67,206.44c0,.77-.32,1.48-.82,1.99-.51,.51-1.22,.82-1.99,.82H2.81c-1.55,0-2.81-1.26-2.81-2.81,0-3.96,1.6-7.55,4.2-10.14,.39-.39,.79-.75,1.21-1.07l-.03-.03L77.47,116.3l12.65,11.58L31.43,192.1H167.99l15.58,17.05,12.65-11.58-2.57-2.81c3.65,2.6,6.02,6.86,6.02,11.68Z"/>
    </g>
  </g>
</svg>