<?xml version="1.0" encoding="UTF-8"?>
<svg id="Camada_2" data-name="Camada 2" xmlns="http://www.w3.org/2000/svg" viewBox="0 0 372.65 387.96">
  <defs>
    <style>
      .cls-1 {
        stroke-linecap: round;
      }

      .cls-1, .cls-2, .cls-3, .cls-4, .cls-5, .cls-6, .cls-7, .cls-8, .cls-9 {
        stroke: #263238;
      }

      .cls-1, .cls-10, .cls-4, .cls-5, .cls-6, .cls-7, .cls-9 {
        stroke-linejoin: round;
      }

      .cls-1, .cls-10, .cls-5, .cls-7, .cls-8 {
        fill: none;
      }

      .cls-1, .cls-5 {
        stroke-width: 3px;
      }

      .cls-2, .cls-3, .cls-8 {
        stroke-miterlimit: 10;
      }

      .cls-2, .cls-4 {
        fill: #fff;
      }

      .cls-3, .cls-11, .cls-9 {
        fill: #263238;
      }

      .cls-10 {
        stroke: #999;
      }

      .cls-6 {
        fill: #e8e9f7;
      }
    </style>
  </defs>
  <g id="Camada_1-2" data-name="Camada 1">
    <g id="freepik--Character--inject-2">
      <path id="el3jy0xkq1nwc" class="cls-9" d="M81.45,358.02l-14.31-9.39s-8.87,8.59-9.38,9.39-24.88,3.71-29.71,3.71-8.29-1.14-8.87,1.16,6.86,7.43,17.73,10.3c4.28,1.13,10.54,3.38,16.7,5.59l-.97,2.43s16.29,6.01,18.87,6.26c.88,.11,1.72-1.22,2.45-3,2.55-2.3,7.47-26.43,7.47-26.43Z"/>
      <path id="elnr5abarzbgh" class="cls-9" d="M323.71,235.56l3.44,16.71s12.34,.16,13.35,0,20.33,14.91,23.72,18.34c3.39,3.43,5.07,6.65,7.1,5.43s.36-10.11-5.33-19.81c-2.25-3.82-5.11-9.83-7.91-15.74l2.39-1.03s-7.33-15.76-8.96-17.78c-.56-.69-2.1-.34-3.86,.39-3.5-.11-23.94,13.49-23.94,13.49Z"/>
      <path id="elfjpc3xkk42i" class="cls-9" d="M156.72,190.86s-4.58,2.86-4,4.58,4.28,4.57,4.28,4.57c0,0-60.45,52.15-61.59,56.16-1.14,4.01-37.68,92.4-37.68,92.4l28.02,14.08,37.4-88.97,63.59-40.68s45.97,65.44,50.55,64.88,98.63-44.41,98.63-44.41l-9.18-21.53-79.46,27.23-24.81-55.71s6-10.31,2.3-20.34c-3.71-10.03-14.59-25.47-14.59-25.47l-53.46,33.22Z"/>
      <path id="elchurotg7l4n" class="cls-10" d="M186.73,232.92s30.46-18.25,33.04-20.83"/>
      <path id="eltos81u5on0f" class="cls-10" d="M170.11,190.57c3.51-3.14,7.26-6.01,11.2-8.59,6-3.43,19.73-2.86,19.73-2.86"/>
      <path id="elp8muf5zpe5" class="cls-10" d="M160.43,199.15s2.03-1.88,4.91-4.43"/>
      <path id="elhdx0qqjk75" class="cls-10" d="M207.6,175.97s-11.43-1.44-20.33,.86"/>
      <path id="el3ufkiko2jpa" class="cls-10" d="M193.87,230.05s23.73,4.3,31.46,3.72"/>
      <path id="el6xektqp2ln" class="cls-10" d="M222.74,248.44c1.84,.55,3.67,1,5.46,1.36"/>
      <path id="elubghta9yazo" class="cls-10" d="M193.59,235.22c7.69,4.54,15.76,8.41,24.11,11.56"/>
      <polygon id="el9d7vg7uyhdr" class="cls-9" points="152.13 185.71 156.71 190.86 210.18 157.65 206.74 154.22 152.13 185.71"/>
      <polygon id="elwl06pd4i0o" class="cls-4" points="229.91 119.42 234.82 126.04 246.83 121.88 244.38 115.98 229.91 119.42"/>
      <path id="elevonl3caebq" class="cls-4" d="M103.56,71.17s-23.78,.34-35.96,0c-12.18-.34-46.22-7.14-48.94-2.03s3.05,19.04,19.72,24.49c16.67,5.45,53.02,10.55,53.02,10.55,0,0,14.95,18.78,23.45,29.93,8.51,11.16,24.13,37.09,25.49,39.46s7.47,17.01,15.64,13.94,52.68-30.61,52.68-32.66,0-4.69-1.34-6.46-17.34-21.42-20.06-26.6c-2.72-5.18-12.51-30.26-12.51-30.26l21.4-5.1s25.16,27.88,29.91,32.31,8.83,2.72,8.83,2.72c0,0,11.23-2.05,11.55-5.45s-37.38-61.23-41.12-63.26-28.89,6.46-39.09,8.15c-10.19,1.69-22.44,2.38-36.71,5.79-8.54,2.06-17.21,3.55-25.95,4.48Z"/>
      <line id="elagjfjvf87tn" class="cls-7" x1="174.56" y1="91.59" x2="140.57" y2="101.1"/>
      <line id="el78eyo4ckef2" class="cls-7" x1="159.26" y1="96" x2="147.37" y2="105.53"/>
      <line id="elk9kc09yjkkt" class="cls-7" x1="62.41" y1="90.87" x2="57.3" y2="88.52"/>
      <polyline id="elug2uo0cm6yl" class="cls-7" points="67.49 87.85 91.29 104.17 66.12 92.59"/>
      <path id="eljyqk5j3yf58" class="cls-7" d="M148.55,140.36c11.96,2.49,32.83,6.15,50.44,5.76"/>
      <path id="el0pi14z48pkmr" class="cls-7" d="M138.74,138.14s2.05,.52,5.53,1.3"/>
      <path id="elvie6uw4twg" class="cls-7" d="M175.66,141.17s14.17,2.94,23.63,2.94"/>
      <polygon id="elk7aekyrspk" class="cls-6" points="103.12 89.13 108.27 106.36 114.96 88.61 103.12 89.13"/>
      <polygon id="elphqgumjah7k" class="cls-4" points="104.67 76.14 97.89 83.62 109.58 92.99 116.13 81.29 104.67 76.14"/>
      <polygon id="el9hhkgh7ez5b" class="cls-4" points="97.89 83.62 101.17 97.44 105.84 89.94 97.89 83.62"/>
      <path id="el4ufuy7wkcu9" class="cls-2" d="M76.14,23.24s-4.69,11.47-4.44,14.51,2.58,4.91,2.35,8.43-7.49,10.06-5.85,11.7,7.71,4.21,7.71,4.21c0,0,6.55,13.58,8.9,14.08s14.96-5.85,14.96-5.85l9.82,22.69,19.42-28.78-6.55-12.88s5.61-14.51,.23-26.44-22.45-12.64-30.65-11.24c-8.19,1.41-14.26,4.88-15.9,9.56Z"/>
      <path id="el36vtf7hasgd" class="cls-3" d="M91.82,20.69c-3.85-.82-7.86,.13-10.94,2.58-5.83,4.21-10.76,8.89-13.09,4.69s4.91-11.24,4.91-11.24c0,0-5.85-1.64-3.5-8.42S80.14,.11,80.14,2.46s-.7,4.21,5.85,.94c6.55-3.27,10.05-4.22,11.46-.47s9.82,1.56,19.4,7.01c9.58,5.45,11.93,8.9,9.82,21.08-2.11,12.17-2.56,18.01-4.21,20.34s-7.49,3.04-10.05,2.11-1.17-3.52-1.17-3.52c0,0,6.79-6.79,3.74-12.17-3.05-5.38-7.47-3.04-8.88,0s-.7,5.62-2.81,5.62-3.97-1.56-4.44-4.91c-.47-3.35-2.1-6.26-3.5-6.79s-4.91,2.58-4.69-2.8c.08-3.11,1.24-6.09,3.27-8.43l-2.1,.23Z"/>
      <path id="el5vczkoui4r4" class="cls-8" d="M76.15,43.83c-.13-3.09,2.08-5.78,5.13-6.26"/>
      <path id="elabo4kmsxj25" class="cls-11" d="M81.67,46.15c.45,1.27,.31,2.49-.3,2.71s-1.45-.66-1.91-1.94-.31-2.49,.3-2.71,1.47,.66,1.91,1.94Z"/>
      <polygon id="el1dv3yxgkp2p" class="cls-4" points="128.53 56.71 108.19 82.68 111.93 96.5 135.79 63.26 128.53 56.71"/>
      <path id="eld2pev6q6sn" class="cls-6" d="M108.25,106.36c.72,2.39,2.7,4.2,5.14,4.69,4.11,.77,11.3-2.32,14.9-11.58,3.6-9.26,11.05-34.72,15.42-40.9,4.36-6.18,18.76-6.42,26.22-5.91s12.59-6.68,19.53-10.03c4.07-1.98,8.39-3.36,12.85-4.12l8.76-17.82-18.25-.52s-18,8.5-22.62,13.9-7.96,4.69-17.73,6.68-15.15,6.18-19.01,18.01c-3.86,11.83-8.99,41.67-14.65,45.79-2.94,2.44-6.96,3.13-10.55,1.82Z"/>
      <path id="el7j3k5cew5zi" class="cls-4" d="M45.07,86.97c2.11,2.21,2.42,5.34,.69,7.03s-4.88,1.27-6.99-.92-2.42-5.34-.69-7.03,4.86-1.2,6.99,.92Z"/>
      <path id="elo52gw78jub8" class="cls-4" d="M43.4,91.24l-3.39-3.6s-6.97-18.18-16.28-23.05c-9.3-4.87-20.5,2.53-22.83,9.51s5.93,18.62,14.59,22.22c6.96,2.61,14.1,4.7,21.36,6.26,0,0,4.02-9.44,6.55-11.34Z"/>
      <path id="el6plrp673oca" class="cls-9" d="M31.34,100.98l.36,.47c3.05,.77,5.14,1.22,5.14,1.22,0,0,4.02-9.51,6.55-11.42l-3.39-3.6s-9.73,1.69-8.66,13.33Z"/>
      <path id="el3xi4rj8m7s2" class="cls-4" d="M64.74,119.38c1.23,1.77,2.65,3.4,4.24,4.87,1.69,1.28,2.31,2.75,.2,2.55-2.56-.06-4.98-1.13-6.75-2.97-2.13-2.32-3.6-4.22-3.6-4.22l5.91-.22Z"/>
      <path id="el7ftkvsggkvh" class="cls-4" d="M65.8,113.01s2.96,4.87,1.91,6.13-10.79,1.69-12.27,1.27-.42-2.33-.42-2.33l10.79-5.07Z"/>
      <path id="elhr4ohxa7riw" class="cls-4" d="M65.58,107.33s2.33,3.6,1.91,5.07-10.35,5.93-12.51,5.71-1.89-1.89-1.89-1.89l12.49-8.89Z"/>
      <path id="elxfpsu5b6eq" class="cls-4" d="M61.58,103.09s3.8-.42,4.22,2.33-1.91,3.6-3.38,4.87-7.82,5.93-9.3,5.93-4.24-4.24-4.24-4.24l12.7-8.89Z"/>
      <path id="elc47o6gsa2cs" class="cls-4" d="M43.4,91.24s10.35,3.82,15.21,5.09,5.08,5.29,2.97,6.76-8.68,9.53-10.59,9.95-4.69-1.69-4.69-1.69c0,0-5.93-2.97-6.77-5.29-.52-1.4-1.48-2.59-2.74-3.4,0,0-.59-8.67,6.6-11.42Z"/>
      <path id="elcdox24enu7h" class="cls-7" d="M46.35,111.35s-1.69-4.02-.2-5.09,3.8,1.27,3.8,1.27c.34-1.23,.91-2.37,1.69-3.38"/>
      <path id="el11zhxky5g0l" class="cls-4" d="M234.9,126.04c.56,3.03,.91,6.1,1.05,9.19-.17,2.14-3.91,11.06-4.1,11.59s1.25,2.68,1.78,3.38,3.03,.36,4.99,1.96,4.27,5.54,7.13,4.69,4.69-4.69,4.69-4.69c0,0,6.58-3.91,6.75-5.87,.09-2.41-.21-4.82-.89-7.14-.53-1.56-9.38-17.21-9.38-17.21l-12.02,4.1Z"/>
      <path id="elow1vddqepze" class="cls-7" d="M236.76,145.21s3.38,.53,4.82,5.71"/>
      <polyline id="el8rxwelmb3qp" class="cls-1" points="238.54 147.89 230.88 151.81 238.01 165.18"/>
      <polyline id="el2x4ae9c51bc" class="cls-5" points="257.24 141.47 259.37 140.58 266.5 154.83"/>
      <g id="el4qbkz0p8uqx">
        <path class="cls-6" d="M225.32,154.91h83.92c3.27,0,5.93,2.66,5.93,5.93v50.5c0,3.28-2.65,5.93-5.93,5.93h-83.92c-3.27,0-5.93-2.66-5.93-5.93v-50.5c0-3.28,2.65-5.93,5.93-5.93Z"/>
      </g>
    </g>
  </g>
</svg>