<?xml version="1.0" encoding="UTF-8"?>
<svg id="Camada_2" data-name="Camada 2" xmlns="http://www.w3.org/2000/svg" viewBox="0 0 493.68 494.07">
  <defs>
    <style>
      .cls-1 {
        fill: #e8e9f7;
      }
    </style>
  </defs>
  <g id="Camada_1-2" data-name="Camada 1">
    <path class="cls-1" d="M384.73,370.75c-21.31-37.06-61.32-61.95-107.03-61.95h-61.71c-45.7,0-85.72,24.9-107.03,61.95,33.94,37.83,83.12,61.57,137.88,61.57s103.94-23.84,137.88-61.57ZM0,247.04C0,110.59,110.5,0,246.84,0s246.84,110.59,246.84,247.04-110.5,247.04-246.84,247.04S0,383.48,0,247.04Zm246.84,15.44c38.38,0,69.42-31.07,69.42-69.48s-31.05-69.48-69.42-69.48-69.42,31.07-69.42,69.48,31.05,69.48,69.42,69.48Z"/>
  </g>
</svg>